<svg width="44" height="45" viewBox="0 0 44 45" fill="none" xmlns="http://www.w3.org/2000/svg">
<g clip-path="url(#clip0_1357_25458)">
<path d="M17.798 2.81177V12.1978C17.798 12.7993 17.3119 13.2841 16.713 13.2841H16.423C15.8241 13.2841 15.3366 12.7993 15.3366 12.1978V2.7688C15.3366 1.22192 14.296 0.76001 13.2983 0.76001C12.3006 0.76001 11.2599 1.22192 11.2599 2.7688V12.1978C11.2599 12.7993 10.7725 13.2841 10.1736 13.2841H9.88356C9.28467 13.2841 8.7986 12.7993 8.7986 12.1978V2.81177C8.7986 0.0429471 4.85081 0.136963 4.85081 2.84262C4.85081 6.08272 4.85081 11.8056 4.85081 11.8056C4.83199 16.7819 6.0217 18.075 7.98486 19.626C9.568 20.8747 10.9201 21.5904 10.9201 24.6922V44.6459H15.6763V24.6922C15.6763 21.5904 17.0284 20.8747 18.6115 19.626C20.576 18.075 21.7644 16.7819 21.7456 11.8056C21.7456 11.8056 21.7456 6.08272 21.7456 2.84262C21.7457 0.136963 17.798 0.0429471 17.798 2.81177Z" fill="white"/>
<path d="M33.1055 3.74632C32.0958 6.57822 29.1887 13.2129 29.0047 19.0728C28.72 28.1687 34.2939 26.8233 34.3932 32.7825V44.701H39.1265L39.1494 44.7601C39.1494 44.7601 39.1494 44.7359 39.1494 44.701C39.1494 43.9047 39.1494 34.4207 39.1494 24.746C39.1494 15.1761 39.1494 5.42752 39.1494 3.74641C39.1494 0.292668 34.6778 -0.660636 33.1055 3.74632Z" fill="white"/>
</g>
<defs>
<clipPath id="clip0_1357_25458">
<rect width="44" height="44" fill="white" transform="translate(0 0.76001)"/>
</clipPath>
</defs>
</svg>
